P1
# Created by GIMP version 2.10.8 PNM plug-in
128 128
0000000000000000000000000000000000000000000000000000000000000000000000
0000000000000000000000000000000000000000000000000000000000000000000000
0000000000000000000000000000000000000000000000000000000000000000000000
0000000000000000000000000000000000000000000000000000000000000000000000
0000000000000000000000000000000000000000000000000000000000000000000000
0000000000000000000000000000000000000000000000000000000000000000000000
0000000000000000000000000000000000000000000000000000000000000000000000
0000000000000000000000000000000000000000000000000000000000000000000000
0000000000000000000000000000000000000000000000000000000000000000000000
0000000000000000000000000000000000000000000000000000000000000000000000
0000000000000000000000000000000000000000000000000000000000000000000000
0000000000000000000000000000000000000000000000000000000000000000000000
0000000000000000000000000000000000000000000000000000000000000000000000
0000000000000000000000000000000000000000000000000000000000000000000000
0000000000000000000000000000000000000000000000000000000000000000000000
0000000000000000000000000000000000000000000000000000000000000000000000
0000000000000000000000000000000000000000000000000000000000000000000000
0000000000000000000000000000000000000000000000000000000000000000000000
0000000000000000000000000000000000000000000000000000000000000000000000
0000000000000000000000000000000000000000000000000000000000000000000000
0000000000000000000000000000000000000000000000000000000000000000000000
0000000000000000000000000000000000000000000000000000000000000000000000
0000000000000000000000000000000000000000000000000000000000000000000000
0000000000000000000000000000000000000000000000000000000000000000000000
0000000000000000000000000000000000000000000000000000000000000000000000
0000000000000000000000000000000000000000000000000000000000000000000000
0000000000000000000000000000000000000000000000000000000000000000000000
0000000000000000000000000000000000000000000000000000000000000000000000
0000000000000000000000000000000000000000000000000000000000000000000000
0000000000000000000000000000000000000000000000000000000000000000000000
0000000000000000000000000000000000000000000000000000000000000000000000
0000000000000000000000000000000000000000000000000000000000000000000000
0000000000000000000000000000000000000000000000000000000000000000000000
0000000000000000000000000000000000000000000000000000000000000000000000
0000000000000000000000000000000000000000000000000000000000000000000000
0000000000000000000000000000000000000000000000000000000000000000000000
0000000000000000000000000000000000000000000000000000000000000000000000
0000000000001111111111111111111111111111111111111111111111111000000000
0000000000000000000000000000000000000000000000000000000000000000000001
1111111111111111111111111111111111111111111111111000000000000000000000
0000000000000000000000000000000000000000000000000000000001111111111111
1111111111111111111111111111111111111000000000000000000000000000000000
0000000000000000000000000000000000000000000001111111111111111111111111
1111111111111111111111111000000000000000000000000000000000000000000000
0000000000000000000000000000000001111111111111111111111111111111111111
1111111111111000000000000000000000000000000000000000000000000000000000
0000000000000000000001111111111111111111111111111111111111111111111111
1000000000000000000000000000000000000000000000000000000000000000000000
0000000001111111111111111111111111111111111111111111111111100000000000
0000000000000000000000000000000000000000000000000000000000000000000111
1111111111111111111111111111111111111111111111100000000000000000000000
0000000000000000000000000000000000000000000000000000000111111111111111
1111111111111111111111111111111111100000000000000000000000000000000000
0000000000000000000000000000000000000000000111111111101101101101101101
1011011011011011011011100000000000000000000000000000000000000000000000
0000000000000000000000000000001111111111000000000000000000000000000000
0000000000000000000000000000000000000000000000000000000000000000000000
0000000000000000001111111111000000000000000000000000000000000000000000
0000000000000000000000000000000000000000000000000000000000000000000000
0000001111111111000000000000000000000000000000000000000000000000000000
0000000000000000000000000000000000000000000000000000000000000000111111
1111000000000000000000000000000000000000000000000000000000000000000000
0000000000000000000000000000000000000000000000000000111111111000000000
0000000000000000000000000000000000000000000000000000000000000000000000
0000000000000000000000000000000000000000111111111000000000000000000000
0000000000000000000000000000000000000000000000000000000000000000000000
0000000000000000000000000000111111111000000000000000000000000000000000
0000000000000000000000000000000000000000000000000000000000000000000000
0000000000000000111111111000000000000000000000000000000000000000000000
0000000000000000000000000000000000000000000000000000000000000000000000
0000111111111000000000000000000000000000000000000000000000000000000000
0000000000000000000000000000000000000000000000000000000000000011111111
1000000000000000000000000000000000000000000000000000000000000000000000
0000000000000000000000000000000000000000000000000111111111100000000000
0000000000000000000000000000000000000000000000000000000000000000000000
0000000000000000000000000000000000000111111111100000000000000000000000
0000000000000000000000000000000000000000000000000000000000000000000000
0000000000000000000000000111111111100000000000000000000000000000000000
0000000000000000000000000000000000000000000000000000000000000000000000
0000000000000111111111100000000000000000000000000000000000000000000000
0000000000000000000000000000000000000000000000000000000000000000000000
0111111111000000000000000000000000000000000000000000000000000000000000
0000000000000000000000000000000000000000000000000000000000011111111100
0000000000000000000000000000000000000000000000000000000000000000000000
0000000000000000000000000000000000000000000000011111111110000000000000
0000000000000000000000000000000000000000000000000000000000000000000000
0000000000000000000000000000000000011111111100000000000000000000000000
0000000000000000000000000000000000000000000000000000000000000000000000
0000000000000000000000011111111100000000000000000000000000000000000000
0000000000000000000000000000000000000000000000000000000000000000000000
0000000000011111111100000000000000000000000000000000000000000000000000
0000000000000000000000000000000000000000000000000000000000000000000011
1111111100000000000000000000000000000000000000000000000000000000000000
0000000000000000000000000000000000000000000000000000000011111111110000
0000000000000101110100000000000000000000000000000000000000000000000000
0000000000000000000000000000000000000000000011111111110000000000011111
1111111111110000000000000000000000000000000000000000000000000000000000
0000000000000000000000000000000011111111110000000011111111111111111111
1110000000000000000000000000000000000000000000000000000000000000000000
0000000000000000000011111111100000001111111111111111111111111110000000
0000000000000000000000000000000000000000000000000000000000000000000000
0000000011111111110000011111111111111111111111111111100000000000000000
0000000000000000000000000000000000000000000000000000000000000000001111
1111100001111111111111111111111111111111110000000000000000000000000000
0000000000000000000000000000000000000000000000000000001111111110001111
1111111111111111111111111111111100000000000000000000000000000000000000
0000000000000000000000000000000000000000001111111110011111111111111111
1111111111111111111110000000000000000000000000000000000000000000000000
0000000000000000000000000000001111111111011111111111111111111111111111
1111111111000000000000000000000000000000000000000000000000000000000000
0000000000000000011111111111111111111111111101011111111111111111111110
0000000000000000000000000000000000000000000000000000000000000000000000
0000011111111111111111111110000000000000111111111111111111000000000000
0000000000000000000000000000000000000000000000000000000000000001111111
1111111111110000000000000000001111111111111111000000000000000000000000
0000000000000000000000000000000000000000000000000001111111111111111100
0000000000000000000011111111111111100000000000000000000000000000000000
0000000000000000000000000000000000000001111111111111110000000000000000
0000000000111111111111110000000000000000000000000000000000000000000000
0000000000000000000000000001111111111111110000000000000000000000000001
1111111111110000000000000000000000000000000000000000000000000000000000
0000000000000001111111111111000000000000000000000000000000111111111111
1000000000000000000000000000000000000000000000000000000000000000000000
0001111111111110000000000000000000000000000000011111111111100000000000
0000000000000000000000000000000000000000000000000000000000000111111111
1100000000000000000000000000000000011111111111110000000000000000000000
0000000000000000000000000000000000000000000000000111111111110000000000
0000000000000000000000001111111111110000000000000000000000000000000000
0000000000000000000000000000000000001111111111100000000000000000000000
0000000000000111111111110000000000000000000000000000000000000000000000
0000000000000000000000000000000000000000000000000000000000000000000000
0111111111111000000000000000000000000000000000000000000000000000000000
0000000000000000000000000000000000000000000000000000000000011111111111
1000000000000000000000000000000000000000000000000000000000000000000000
0000000000000000000000000000000000000000000000001111111111100000000000
0000000000000000000000000000000000000000000000000000000000000000000000
0000000000000000000000000000000000001111111111100000000000000000000000
0000000000000000000000000000000000000000000000000000000000000000000000
0000000000000000000000001111111111100000000000000000000000000000000000
0000000000000000000000000000000000000000000000000000000000000000000000
0000000000000111111111110000000000000000000000000000000000000000000000
0000000000000000000000000000000000000000000000000000000000000000000000
0111111111110000000000000000000000000000000000000000000000000000000000
0000000000000000000000000000000000000000000000000000000000011111111111
0000000000000000000000000000000000000000000000000000000000000000000000
0000000000000000000000000000000000000000000000011111111111000000000000
0000000000000000000000000000000000000000000000000000000000000000000000
0000000000000000000000000000000000011111111111000000000000000000000000
0000000000000000000000000000000000000000000000000000000000000000000000
0000000000000000000000011111111111000000000000000000000000000000000000
0000000000000000000000000000000000000000000000000000000000000000000000
0000000000011111111111000000000000000000000000000000000000000000000000
0000000000000000000000000000000000000000000000000000000000000000000001
1111111111000000000000000000000000000000000000000000000000000000000000
0000000000000000000000000000000000000000000000000000000001111111111100
0000000000000000000000000000000000000000000000000000000000000000000000
0000000000000000000000000000000000000000000001111111111000000000000000
0000000000000000000000000000000000000000000000000000011011010101000000
0000000000000000000000000000000011111111111000000000000000000000000000
0000000000000000000000000000000000000000011111111111000000000000000000
0000000000000000000011111111111000000000000000000000000000000000000000
0000000000000000000000000000011111111111000000000000000000000000000000
0000000011111111111000000000000000000000000000000000000000000000000000
0000000000000000011111111111000000000000000000000000000000000000001111
1111111000000000000000000000000000000000000000000000000000000000000000
0000001111111111100000000000000000000000000000000000011111111111100000
0000000000000000000000000000000000000000000000000000000000000000111111
1111100000000000000000000000000000000000011111111111000000000000000000
0000000000000000000000000000000000000000000000000000111111111110000000
0000000000000000000000000000111111111111000000000000000000000000000000
0000000000000000000000000000000000000000111111111111000000000000000000
0000000000000000111111111111000000000000000000000000000000000000000000
0000000000000000000000000000011111111111100000000000000000000000000000
0001111111111110000000000000000000000000000000000000000000000000000000
0000000000000000011111111111100000000000000000000000000000001111111111
1110000000000000000000000000000000000000000000000000000000000000000000
0000001111111111110000000000000000000000000000001111111111110000000000
0000000000000000000000000000000000000000000000000000000000000000111111
1111111000000000000000000000000000111111111111110000000000000000000000
0000000000000000000000000000000000000000000000000000011111111111111000
0000000000000000000001111111111111100000000000000000000000000000000000
0000000000000000000000000000000000000000011111111111111100000000000000
0000000011111111111111000000000000000000000000000000000000000000000000
0000000000000000000000000000001111111111111111000000000000000000111111
1111111111000000000000000000000000000000000000000000000000000000000000
0000000000000000000111111111111111111000000000000111111111111111111000
0000000000000000000000000000000000000000000000000000000000000000000000
0000000011111111111111111111110101111111111111111111110000000000000000
0000000000000000000000000000000000000000000000000000000000000000000111
1111111111111111111111111111111111111111100000000000000000000000000000
0000000000000000000000000000000000000000000000000000000111111111111111
1111111111111111111111111111000000000000000000000000000000000000000000
0000000000000000000000000000000000000000000001111111111111111111111111
1111111111111110000000000000000000000000000000000000000000000000000000
0000000000000000000000000000000000111111111111111111111111111111111111
1000000000000000000000000000000000000000000000000000000000000000000000
0000000000000000000000001111111111111111111111111111111111000000000000
0000000000000000000000000000000000000000000000000000000000000000000000
0000000000000011111111111111111111111111111100000000000000000000000000
0000000000000000000000000000000000000000000000000000000000000000000000
0000111111111111111111111111110000000000000000000000000000000000000000
0000000000000000000000000000000000000000000000000000000000000000011111
1111111111111110000000000000000000000000000000000000000000000000000000
0000000000000000000000000000000000000000000000000000000000101111111010
0000000000000000000000000000000000000000000000000000000000000000000000
0000000000000000000000000000000000000000000000000000000000000000000000
0000000000000000000000000000000000000000000000000000000000000000000000
0000000000000000000000000000000000000000000000000000000000000000000000
0000000000000000000000000000000000000000000000000000000000000000000000
0000000000000000000000000000000000000000000000000000000000000000000000
0000000000000000000000000000000000000000000000000000000000000000000000
0000000000000000000000000000000000000000000000000000000000000000000000
0000000000000000000000000000000000000000000000000000000000000000000000
0000000000000000000000000000000000000000000000000000000000000000000000
0000000000000000000000000000000000000000000000000000000000000000000000
0000000000000000000000000000000000000000000000000000000000000000000000
0000000000000000000000000000000000000000000000000000000000000000000000
0000000000000000000000000000000000000000000000000000000000000000000000
0000000000000000000000000000000000000000000000000000000000000000000000
0000000000000000000000000000000000000000000000000000000000000000000000
0000000000000000000000000000000000000000000000000000000000000000000000
0000000000000000000000000000000000000000000000000000000000000000000000
0000000000000000000000000000000000000000000000000000000000000000000000
0000000000000000000000000000000000000000000000000000000000000000000000
0000000000000000000000000000000000000000000000000000000000000000000000
0000000000000000000000000000000000000000000000000000000000000000000000
0000000000000000000000000000000000000000000000000000000000000000000000
0000000000000000000000000000000000000000000000000000000000000000000000
0000000000000000000000000000000000000000000000000000000000000000000000
0000000000000000000000000000000000000000000000000000000000000000000000
0000000000000000000000000000000000000000000000000000000000000000000000
0000000000000000000000000000000000000000000000000000000000000000000000
0000000000000000000000000000000000000000000000000000000000000000000000
0000000000000000000000000000000000000000000000000000000000000000000000
0000