P1
# Created by GIMP version 2.10.8 PNM plug-in
128 128
0000000000000000000000000000000000000000000000000000000000000000000000
0000000000000000000000000000000000000000000000000000000000000000000000
0000000000000000000000000000000000000000000000000000000000000000000000
0000000000000000000000000000000000000000000000000000000000000000000000
0000000000000000000000000000000000000000000000000000000000000000000000
0000000000000000000000000000000000000000000000000000000000000000000000
0000000000000000000000000000000000000000000000000000000000000000000000
0000000000000000000000000000000000000000000000000000000000000000000000
0000000000000000000000000000000000000000000000000000000000000000000000
0000000000000000000000000000000000000000000000000000000000000000000000
0000000000000000000000000000000000000000000000000000000000000000000000
0000000000000000000000000000000000000000000000000000000000000000000000
0000000000000000000000000000000000000000000000000000000000000000000000
0000000000000000000000000000000000000000000000000000000000000000000000
0000000000000000000000000000000000000000000000000000000000000000000000
0000000000000000000000000000000000000000000000000000000000000000000000
0000000000000000000000000000000000000000000000000000000000000000000000
0000000000000000000000000000000000000000000000000000000000000000000000
0000000000000000000000000000000000000000000000000000000000000000000000
0000000000000000000000000000000000000000000000000000000000000000000000
0000000000000000000000000000000000000000000000000000000000000000000000
0000000000000000000000000000000000000000000000000000000000000000000000
0000000000000000000000000000000000000000000000000000000000000000000000
0000000000000000000000000000000000000000000000000000000000000000000000
0000000000000000000000000000000000000000000000000000000000000000000000
0000000000000000000000000000000000000000000000000000000000000000000000
0000000000000000000000000000000000000000000000000000000000000000000000
0000000000000000000000000000000000000000000000000000000000000000000000
0000000000000000000000000000000000000000000000000000000000000000000000
0000000000000000000000000000000000000000000000000000000000000000000000
0000000000000000000000000000000000000000000000000000000000000000000000
0000000000000000000000000000000000000000000000000000000000000000000000
0000000000000000000000000000000000000000000000000000000000000000000000
0000000000000000000000000000000000000000000000000000000000000000000000
0000000000000000000000000000000000000000000000000000000000000000000000
0000000000000000000000000000000000000000000000000000000000000000000000
0000000000000000000000000000000000000000000000000000000000000000000000
0000111111111111111111111111111111111111111111111111111111111111000000
0000000000000000000000000000000000000000000000000000000000000011111111
1111111111111111111111111111111111111111111111111110000000000000000000
0000000000000000000000000000000000000000000000000011111111111111111111
1111111111111111111111111111111111111111000000000000000000000000000000
0000000000000000000000000000000000000011111111111111111111111111111111
1111111111111111111111111110000000000000000000000000000000000000000000
0000000000000000000000000011111111111111111111111111111111111111111111
1111111111111111000000000000000000000000000000000000000000000000000000
0000000000000011111111111111111111111111111111111111111111111111111111
1110000000000000000000000000000000000000000000000000000000000000000000
0011111111111111111111111111111111111111111111111111111111111100000000
0000000000000000000000000000000000000000000000000000000000001111111111
1111111111111111111111111111111111111111111111111000000000000000000000
0000000000000000000000000000000000000000000000001111111111111111111111
1111111111111111111111111111111111111100000000000000000000000000000000
0000000000000000000000000000000000001011011011011011011011011011011011
0110110110110111111111111000000000000000000000000000000000000000000000
0000000000000000000000000000000000000000000000000000000000000000000000
0001111111111000000000000000000000000000000000000000000000000000000000
0000000000000000000000000000000000000000000000000000000000001111111111
1000000000000000000000000000000000000000000000000000000000000000000000
0000000000000000000000000000000000000000000000001111111111000000000000
0000000000000000000000000000000000000000000000000000000000000000000000
0000000000000000000000000000000000011111111111000000000000000000000000
0000000000000000000000000000000000000000000000000000000000000000000000
0000000000000000000000011111111110000000000000000000000000000000000000
0000000000000000000000000000000000000000000000000000000000000000000000
0000000000111111111110000000000000000000000000000000000000000000000000
0000000000000000000000000000000000000000000000000000000000000000000111
1111111100000000000000000000000000000000000000000000000000000000000000
0000000000000000000000000000000000000000000000000000000111111111110000
0000000000000000000000000000000000000000000000000000000000000000000000
0000000000000000000000000000000000000000000111111111100000000000000000
0000000000000000000000000000000000000000000000000000000000000000000000
0000000000000000000000000000001111111111100000000000000000000000000000
0000000000000000000000000000000000000000000000000000000000000000000000
0000000000000000011111111111000000000000000000000000000000000000000000
0000000000000000000000000000000000000000000000000000000000000000000000
0000011111111111000000000000000000000000000000000000000000000000000000
0000000000000000000000000000000000000000000000000000000000000001111111
1110000000000000000000000000000000000000000000000000000000000000000000
0000000000000000000000000000000000000000000000000011111111111000000000
0000000000000000000000000000000000000000000000000000000000000000000000
0000000000000000000000000000000000000111111111110000000000000000000000
0000000000000000000000000000000000000000000000000000000000000000000000
0000000000000000000000000111111111110000000000000000000000000000000000
0000000000000000000000000000000000000000000000000000000000000000000000
0000000000000111111111100000000000000000000000000000000000000000000000
0000000000000000000000000000000000000000000000000000000000000000000000
1111111111100000000000000000000000000000000000000000000000000000000000
0000000000000000000000000000000000000000000000000000000001111111111100
0000000000000000000000000000000000000000000000000000000000000000000000
0000000000000000000000000000000000000000000001111111111100000000000000
0000000000000000000000000000000000000000000000000000000000000000000000
0000000000000000000000000000000011111111111000000000000000000000000000
0000000000000000000000000000000000000000000000000000000000000000000000
0000000000000000000011111111111000000000000000000000000000000000000000
0000000000000000000000000000000000000000000000000000000000000000000000
0000000111111111110000000000000000000000000000000000000000000000000000
0000000000000000000000000000000000000000000000000000000000000000011111
1111110000000000000000000000000000000000000000000000000000000000000000
0000000000000000000000000000000000000000000000000000111111111110000000
0000000000000000000000000000000000000000000000000000000000000000000000
0000000000000000000000000000000000000000111111111110000000000000000000
0000000000000000000000000000000000000000000000000000000000000000000000
0000000000000000000000000001111111111100000000000000000000000000000000
0000000000000000000000000000000000000000000000000000000000000000000000
0000000000000001111111111100000000000000000000000000000000000000000000
0000000000000000000000000000000000000000000000000000000000000000000000
0011111111111000000000000000000000000000000000000000000000000000000000
0000000000000000000000000000000000000000000000000000000000001111111111
1000000000000000000000000000000000000000000000000000000000000000000000
0000000000000000000000000000000000000000000000011111111111000000000000
0000000000000000000000000000000000000000000000000000000000000000000000
0000000000000000000000000000000000011111111111000000000000000000000000
0000000000000000000000000000000000000000000000000000000000000000000000
0000000000000000000000111111111110000000000000000000000000000000000000
0000000000000000000000000000000000000000000000000000000000000000000000
0000000000111111111110000000000000000000000000000000000000000000000000
0000000000000000000000000000000000000000000000000000000000000000000111
1111111100000000000000000000000000000000000000000000000000000000000000
0000000000000000000000000000000000000000000000000000000111111111110000
0000000000000000000000000000000000000000000000000000000000000000000000
0000000000000000000000000000000000000000001111111111100000000000000000
0000000000000000000000000000000000000000000000000000000000000000000000
0000000000000000000000000000001111111111100000000000000000000000000000
0000000000000000000000000000000000000000000000000000000000000000000000
0000000000000000011111111111000000000000000000000000000000000000000000
0000000000000000000000000000000000000000000000000000000000000000000000
0000011111111111000000000000000000000000000000000000000000000000000000
0000000000000000000000000000000000000000000000000000000000000011111111
1110000000000000000000000000000000000000000000000000000000000000000000
0000000000000000000000000000000000000000000000000011111111111000000000
0000000000000000000000000000000000000000000000000000000000000000000000
0000000000000000000000000000000000000111111111110000000000000000000000
0000000000000000000000000000000000000000000000000000000000000000000000
0000000000000000000000000111111111110000000000000000000000000000000000
0000000000000000000000000000000000000000000000000000000000000000000000
0000000000001111111111100000000000000000000000000000000000000000000000
0000000000000000000000000000000000000000000000000000000000000000000000
1111111111100000000000000000000000000000000000000000000000000000000000
0000000000000000000000000000000000000000000000000000000001111111111100
0000000000000000000000000000000000000000000000000000000000000000000000
0000000000000000000000000000000000000000000001111111111100000000000000
0000000000000000000000000000000000000000000000000000000000000000000000
0000000000000000000000000000000011111111111000000000000000000000000000
0000000000000000000000000000000000000000000000000000000000000000000000
0000000000000000000011111111111000000000000000000000000000000000000000
0000000000000000000000000000000000000000000000000000000000000000000000
0000000111111111110000000000000000000000000000000000000000000000000000
0000000000000000000000000000000000000000000000000000000000000000011111
1111110000000000000000000000000000000000000000000000000000000000000000
0000000000000000000000000000000000000000000000000000111111111110000000
0000000000000000000000000000000000000000000000000000000000000000000000
0000000000000000000000000000000000000000111111111110000000000000000000
0000000000000000000000000000000000000000000000000000000000000000000000
0000000000000000000000000001111111111100000000000000000000000000000000
0000000000000000000000000000000000000000000000000000000000000000000000
0000000000000001111111111100000000000000000000000000000000000000000000
0000000000000000000000000000000000000000000000000000000000000000000000
0011111111111000000000000000000000000000000000000000000000000000000000
0000000000000000000000000000000000000000000000000000000000001111111111
1000000000000000000000000000000000000000000000000000000000000000000000
0000000000000000000000000000000000000000000000011111111111000000000000
0000000000000000000000000000000000000000000000000000000000000000000000
0000000000000000000000000000000000011111111111000000000000000000000000
0000000000000000000000000000000000000000000000000000000000000000000000
0000000000000000000000111111111110000000000000000000000000000000000000
0000000000000000000000000000000000000000000000000000000000000000000000
0000000001111111111110000000000000000000000000000000000000000000000000
0000000000000000000000000000000000000000000000000000000000000000000111
1111111100000000000000000000000000000000000000000000000000000000000000
0000000000000000000000000000000000000000000000000000000111111111110000
0000000000000000000000000000000000000000000000000000000000000000000000
0000000000000000000000000000000000000000001111111111100000000000000000
0000000000000000000000000000000000000000000000000000000000000000000000
0000000000000000000000000000011111111111100000000000000000000000000000
0000000000000000000000000000000000000000000000000000000000000000000000
0000000000000000011111111111000000000000000000000000000000000000000000
0000000000000000000000000000000000000000000000000000000000000000000000
0000111111111111000000000000000000000000000000000000000000000000000000
0000000000000000000000000000000000000000000000000000000000000011111111
1110000000000000000000000000000000000000000000000000000000000000000000
0000000000000000000000000000000000000000000000000111111111111000000000
0000000000000000000000000000000000000000000000000000000000000000000000
0000000000000000000000000000000000000111111111110000000000000000000000
0000000000000000000000000000000000000000000000000000000000000000000000
0000000000000000000000001111111111110000000000000000000000000000000000
0000000000000000000000000000000000000000000000000000000000000000000000
0000000000001111111111100000000000000000000000000000000000000000000000
0000000000000000000000000000000000000000000000000000000000000000000001
1111111111100000000000000000000000000000000000000000000000000000000000
0000000000000000000000000000000000000000000000000000000001111111111100
0000000000000000000000000000000000000000000000000000000000000000000000
0000000000000000000000000000000000000000000011111111111100000000000000
0000000000000000000000000000000000000000000000000000000000000000000000
0000000000000000000000000000000011111111111000000000000000000000000000
0000000000000000000000000000000000000000000000000000000000000000000000
0000000000000000000111111111111000000000000000000000000000000000000000
0000000000000000000000000000000000000000000000000000000000000000000000
0000000111111111110000000000000000000000000000000000000000000000000000
0000000000000000000000000000000000000000000000000000000000000000111111
1111110000000000000000000000000000000000000000000000000000000000000000
0000000000000000000000000000000000000000000000000000000000000000000000
0000000000000000000000000000000000000000000000000000000000000000000000
0000000000000000000000000000000000000000000000000000000000000000000000
0000000000000000000000000000000000000000000000000000000000000000000000
0000000000000000000000000000000000000000000000000000000000000000000000
0000000000000000000000000000000000000000000000000000000000000000000000
0000000000000000000000000000000000000000000000000000000000000000000000
0000000000000000000000000000000000000000000000000000000000000000000000
0000000000000000000000000000000000000000000000000000000000000000000000
0000000000000000000000000000000000000000000000000000000000000000000000
0000000000000000000000000000000000000000000000000000000000000000000000
0000000000000000000000000000000000000000000000000000000000000000000000
0000000000000000000000000000000000000000000000000000000000000000000000
0000000000000000000000000000000000000000000000000000000000000000000000
0000000000000000000000000000000000000000000000000000000000000000000000
0000000000000000000000000000000000000000000000000000000000000000000000
0000000000000000000000000000000000000000000000000000000000000000000000
0000000000000000000000000000000000000000000000000000000000000000000000
0000000000000000000000000000000000000000000000000000000000000000000000
0000000000000000000000000000000000000000000000000000000000000000000000
0000000000000000000000000000000000000000000000000000000000000000000000
0000000000000000000000000000000000000000000000000000000000000000000000
0000000000000000000000000000000000000000000000000000000000000000000000
0000000000000000000000000000000000000000000000000000000000000000000000
0000000000000000000000000000000000000000000000000000000000000000000000
0000000000000000000000000000000000000000000000000000000000000000000000
0000000000000000000000000000000000000000000000000000000000000000000000
0000000000000000000000000000000000000000000000000000000000000000000000
0000000000000000000000000000000000000000000000000000000000000000000000
0000000000000000000000000000000000000000000000000000000000000000000000
0000000000000000000000000000000000000000000000000000000000000000000000
0000000000000000000000000000000000000000000000000000000000000000000000
0000000000000000000000000000000000000000000000000000000000000000000000
0000