P1
# Created by GIMP version 2.10.8 PNM plug-in
128 128
0000000000000000000000000000000000000000000000000000000000000000000000
0000000000000000000000000000000000000000000000000000000000000000000000
0000000000000000000000000000000000000000000000000000000000000000000000
0000000000000000000000000000000000000000000000000000000000000000000000
0000000000000000000000000000000000000000000000000000000000000000000000
0000000000000000000000000000000000000000000000000000000000000000000000
0000000000000000000000000000000000000000000000000000000000000000000000
0000000000000000000000000000000000000000000000000000000000000000000000
0000000000000000000000000000000000000000000000000000000000000000000000
0000000000000000000000000000000000000000000000000000000000000000000000
0000000000000000000000000000000000000000000000000000000000000000000000
0000000000000000000000000000000000000000000000000000000000000000000000
0000000000000000000000000000000000000000000000000000000000000000000000
0000000000000000000000000000000000000000000000000000000000000000000000
0000000000000000000000000000000000000000000000000000000000000000000000
0000000000000000000000000000000000000000000000000000000000000000000000
0000000000000000000000000000000000000000000000000000000000000000000000
0000000000000000000000000000000000000000000000000000000000000000000000
0000000000000000000000000000000000000000000000000000000000000000000000
0000000000000000000000000000000000000000000000000000000000000000000000
0000000000000000000000000000000000000000000000000000000000000000000000
0000000000000000000000000000000000000000000000000000000000000000000000
0000000000000000000000000000000000000000000000000000000000000000000000
0000000000000000000000000000000000000000000000000000000000000000000000
0000000000000000000000000000000000000000000000000000000000000000000000
0000000000000000000000000000000000000000000000000000000000000000000000
0000000000000000000000000000000000000000000000000000000000000000000000
0000000000000000000000000000000000000000000000000000000000000000000000
0000000000000000000000000000000000000000000000000000000000000000000000
0000000000000000000000000000000000000000000000000000000000000000000000
0000000000000000000000000000000000000000000000000000000000000000000000
0000000000000000000000000000000000000000000000000000000000000000000000
0000000000000000000000000000000000000000000000000000000000000000000000
0000000000000000000000000000000000000000000000000001111111111111000000
0000000000000000000000000000000000000000000000000000000000000000000000
0000000000000000000000000000000000011111111111111111111110000000000000
0000000000000000000000000000000000000000000000000000000000000000000000
0000000000000000000011111111111111111111111111100000000000000000000000
0000000000000000000000000000000000000000000000000000000000000000000000
0000001111111111111111111111111111111100000000000000000000000000000000
0000000000000000000000000000000000000000000000000000000000000011111111
1111111111111111111111111110000000000000000000000000000000000000000000
0000000000000000000000000000000000000000000000000111111111111111111111
1111111111111111100000000000000000000000000000000000000000000000000000
0000000000000000000000000000000000011111111111111111111111111111111111
1111110000000000000000000000000000000000000000000000000000000000000000
0000000000000000000000011111111111111111111111111111111111111111100000
0000000000000000000000000000000000000000000000000000000000000000000000
0000000001111111111111111111111111111111111111111111111000000000000000
0000000000000000000000000000000000000000000000000000000000000000000111
1111111111111110100000010111111111111111111000000000000000000000000000
0000000000000000000000000000000000000000000000000000011111111111111111
0000000000000000111111111111111100000000000000000000000000000000000000
0000000000000000000000000000000000000000011111111111111100000000000000
0000001111111111111110000000000000000000000000000000000000000000000000
0000000000000000000000000000111111111111110000000000000000000000001111
1111111110000000000000000000000000000000000000000000000000000000000000
0000000000000000111111111111100000000000000000000000000111111111111100
0000000000000000000000000000000000000000000000000000000000000000000000
0001111111111111000000000000000000000000000011111111111110000000000000
0000000000000000000000000000000000000000000000000000000000000111111111
1110000000000000000000000000000001111111111110000000000000000000000000
0000000000000000000000000000000000000000000000001111111111110000000000
0000000000000000000001111111111110000000000000000000000000000000000000
0000000000000000000000000000000000001111111111110000000000000000000000
0000000000111111111111000000000000000000000000000000000000000000000000
0000000000000000000000001111111111100000000000000000000000000000000001
1111111111000000000000000000000000000000000000000000000000000000000000
0000000000001111111111100000000000000000000000000000000001111111111100
0000000000000000000000000000000000000000000000000000000000000000000001
1111111111000000000000000000000000000000000001111111111100000000000000
0000000000000000000000000000000000000000000000000000000000111111111100
0000000000000000000000000000000000111111111100000000000000000000000000
0000000000000000000000000000000000000000000001111111111100000000000000
0000000000000000000001111111111100000000000000000000000000000000000000
0000000000000000000000000000000001111111111100000000000000000000000000
0000000000111111111110000000000000000000000000000000000000000000000000
0000000000000000000001111111111100000000000000000000000000000000000011
1111111100000000000000000000000000000000000000000000000000000000000000
0000000000111111111100000000000000000000000000000000000011111111110000
0000000000000000000000000000000000000000000000000000000000000000000111
1111111100000000000000000000000000000000000011111111110000000000000000
0000000000000000000000000000000000000000000000000000000011111111110000
0000000000000000000000000000000011111111110000000000000000000000000000
0000000000000000000000000000000000000000000011111111110000000000000000
0000000000000000000111111111110000000000000000000000000000000000000000
0000000000000000000000000000000011111111111000000000000000000000000000
0000000111111111110000000000000000000000000000000000000000000000000000
0000000000000000000011111111111000000000000000000000000000000000011111
1111100000000000000000000000000000000000000000000000000000000000000000
0000000001111111111000000000000000000000000000000000111111111110000000
0000000000000000000000000000000000000000000000000000000000000000000111
1111111100000000000000000000000000000000111111111110000000000000000000
0000000000000000000000000000000000000000000000000000000011111111111000
0000000000000000000000000001111111111100000000000000000000000000000000
0000000000000000000000000000000000000000000011111111111000000000000000
0000000000000011111111111100000000000000000000000000000000000000000000
0000000000000000000000000000000001111111111100000000000000000000000000
0011111111111000000000000000000000000000000000000000000000000000000000
0000000000000000000001111111111111000000000000000000000000111111111111
0000000000000000000000000000000000000000000000000000000000000000000000
0000000000111111111111100000000000000000000001111111111111000000000000
0000000000000000000000000000000000000000000000000000000000000000000001
1111111111111000000000000000000111111111111110000000000000000000000000
0000000000000000000000000000000000000000000000000000000000111111111111
1111000000000000111111111111111000000000000000000000000000000000000000
0000000000000000000000000000000000000000000000001111111111111111111111
1111111111111111110000000000000000000000000000000000000000000000000000
0000000000000000000000000000000000000111111111111111111111111111111111
1111100000000000000000000000000000000000000000000000000000000000000000
0000000000000000000000000001111111111111111111111111111111111000000000
0000000000000000000000000000000000000000000000000000000000000000000000
0000000000000000001111111111111111111111111111000000000000000000000000
0000000000000000000000000000000000000000000000000000000000000000000000
0000001111111111111111111111111110000000000000000000000000000000000000
0000000000000000000000000000000000000000000000000000000000000001111111
1111111111111111111111100000000000000000000000000000000000000000000000
0000000000000000000000000000000000000000000000011111111111111111111111
1111111111111100000000000000000000000000000000000000000000000000000000
0000000000000000000000000000000000111111111111111111111111111111111111
1111000000000000000000000000000000000000000000000000000000000000000000
0000000000000000000011111111111111111111111111111111111111111111000000
0000000000000000000000000000000000000000000000000000000000000000000000
0000001111111111111111111101010101111111111111111111100000000000000000
0000000000000000000000000000000000000000000000000000000000000001111111
1111111111000000000000000111111111111111111000000000000000000000000000
0000000000000000000000000000000000000000000000000011111111111111100000
0000000000000000011111111111111100000000000000000000000000000000000000
0000000000000000000000000000000000000111111111111110000000000000000000
0000001111111111111100000000000000000000000000000000000000000000000000
0000000000000000000000001111111111111100000000000000000000000000001111
1111111110000000000000000000000000000000000000000000000000000000000000
0000000000001111111111110000000000000000000000000000000011111111111100
0000000000000000000000000000000000000000000000000000000000000000000001
1111111111110000000000000000000000000000000011111111111110000000000000
0000000000000000000000000000000000000000000000000000000011111111111100
0000000000000000000000000000000000111111111110000000000000000000000000
0000000000000000000000000000000000000000000011111111111100000000000000
0000000000000000000000111111111111000000000000000000000000000000000000
0000000000000000000000000000000111111111111000000000000000000000000000
0000000000011111111111000000000000000000000000000000000000000000000000
0000000000000000000111111111110000000000000000000000000000000000000001
1111111111100000000000000000000000000000000000000000000000000000000000
0000000111111111110000000000000000000000000000000000000000111111111110
0000000000000000000000000000000000000000000000000000000000000000111111
1111110000000000000000000000000000000000000000111111111110000000000000
0000000000000000000000000000000000000000000000000000111111111110000000
0000000000000000000000000000000000011111111111000000000000000000000000
0000000000000000000000000000000000000000111111111110000000000000000000
0000000000000000000000011111111111000000000000000000000000000000000000
0000000000000000000000000000111111111110000000000000000000000000000000
0000000000011111111111000000000000000000000000000000000000000000000000
0000000000000000111111111110000000000000000000000000000000000000000001
1111111111000000000000000000000000000000000000000000000000000000000000
0000111111111100000000000000000000000000000000000000000001111111111100
0000000000000000000000000000000000000000000000000000000000000011111111
1110000000000000000000000000000000000000000001111111111100000000000000
0000000000000000000000000000000000000000000000000111111111111000000000
0000000000000000000000000000000001111111111100000000000000000000000000
0000000000000000000000000000000000000011111111111000000000000000000000
0000000000000000000001111111111100000000000000000000000000000000000000
0000000000000000000000000011111111111000000000000000000000000000000000
0000000001111111111100000000000000000000000000000000000000000000000000
0000000000000011111111111000000000000000000000000000000000000000000111
1111111100000000000000000000000000000000000000000000000000000000000000
0011111111111100000000000000000000000000000000000000001111111111110000
0000000000000000000000000000000000000000000000000000000000001111111111
1100000000000000000000000000000000000000001111111111100000000000000000
0000000000000000000000000000000000000000000000000111111111110000000000
0000000000000000000000000000011111111111100000000000000000000000000000
0000000000000000000000000000000000000111111111111000000000000000000000
0000000000000000011111111111100000000000000000000000000000000000000000
0000000000000000000000000111111111111000000000000000000000000000000000
0000111111111111100000000000000000000000000000000000000000000000000000
0000000000000011111111111100000000000000000000000000000000000011111111
1111000000000000000000000000000000000000000000000000000000000000000000
0011111111111110000000000000000000000000000000001111111111111100000000
0000000000000000000000000000000000000000000000000000000000000111111111
1111000000000000000000000000000000001111111111111000000000000000000000
0000000000000000000000000000000000000000000000000111111111111111000000
0000000000000000000000111111111111111000000000000000000000000000000000
0000000000000000000000000000000000000011111111111111100000000000000000
0000000001111111111111110000000000000000000000000000000000000000000000
0000000000000000000000000011111111111111111000000000000000000000011111
1111111111100000000000000000000000000000000000000000000000000000000000
0000000000000001111111111111111111000000000000000011111111111111111100
0000000000000000000000000000000000000000000000000000000000000000000000
0000111111111111111111111100100010111111111111111111111000000000000000
0000000000000000000000000000000000000000000000000000000000000001111111
1111111111111111111111111111111111111111111000000000000000000000000000
0000000000000000000000000000000000000000000000000000011111111111111111
1111111111111111111111111111100000000000000000000000000000000000000000
0000000000000000000000000000000000000000001111111111111111111111111111
1111111111111111000000000000000000000000000000000000000000000000000000
0000000000000000000000000000000111111111111111111111111111111111111111
1100000000000000000000000000000000000000000000000000000000000000000000
0000000000000000000001111111111111111111111111111111111111100000000000
0000000000000000000000000000000000000000000000000000000000000000000000
0000000000011111111111111111111111111111111110000000000000000000000000
0000000000000000000000000000000000000000000000000000000000000000000000
0011111111111111111111111111110000000000000000000000000000000000000000
0000000000000000000000000000000000000000000000000000000000000011111111
1111111111111110000000000000000000000000000000000000000000000000000000
0000000000000000000000000000000000000000000000000000000101111111111010
0000000000000000000000000000000000000000000000000000000000000000000000
0000000000000000000000000000000000000000000000000000000000000000000000
0000000000000000000000000000000000000000000000000000000000000000000000
0000000000000000000000000000000000000000000000000000000000000000000000
0000000000000000000000000000000000000000000000000000000000000000000000
0000000000000000000000000000000000000000000000000000000000000000000000
0000000000000000000000000000000000000000000000000000000000000000000000
0000000000000000000000000000000000000000000000000000000000000000000000
0000000000000000000000000000000000000000000000000000000000000000000000
0000000000000000000000000000000000000000000000000000000000000000000000
0000000000000000000000000000000000000000000000000000000000000000000000
0000000000000000000000000000000000000000000000000000000000000000000000
0000000000000000000000000000000000000000000000000000000000000000000000
0000000000000000000000000000000000000000000000000000000000000000000000
0000000000000000000000000000000000000000000000000000000000000000000000
0000000000000000000000000000000000000000000000000000000000000000000000
0000000000000000000000000000000000000000000000000000000000000000000000
0000000000000000000000000000000000000000000000000000000000000000000000
0000000000000000000000000000000000000000000000000000000000000000000000
0000000000000000000000000000000000000000000000000000000000000000000000
0000000000000000000000000000000000000000000000000000000000000000000000
0000000000000000000000000000000000000000000000000000000000000000000000
0000000000000000000000000000000000000000000000000000000000000000000000
0000000000000000000000000000000000000000000000000000000000000000000000
0000000000000000000000000000000000000000000000000000000000000000000000
0000000000000000000000000000000000000000000000000000000000000000000000
0000000000000000000000000000000000000000000000000000000000000000000000
0000000000000000000000000000000000000000000000000000000000000000000000
0000000000000000000000000000000000000000000000000000000000000000000000
0000000000000000000000000000000000000000000000000000000000000000000000
0000